<svg id="Layer_1" data-name="Layer 1" xmlns="http://www.w3.org/2000/svg" xmlns:xlink="http://www.w3.org/1999/xlink" 
    width="800" height="800" 
    viewBox="0 0 200 200">
    <!--style 작동이 안하네 일단 넘어가는데 따로 공부하도록-->
    <g>
        <!--
            허리 밑단 총장
            34 46 43
            시작점
            point_start_x = 100
            point_start_y = 50

            고정점
            허리 top x = 허리 단면 * 0.5
            허리 top y = point_start_y

            제어점_01 x = 허리 단면 * 0.5
            제어점_01 y = point_start_y + 1

            제어점_02 x = 허리 단면 * 0.51
            제어점_02 y = point_start_y + 3

            허리 bottom x = 허리 단면 * 0.53
            허리 bottom y = point_start_y + 5
            
            허리 아래 선 접점 x = point_start_x
            허리 아래 서 접점 y = point_start_y + 5

            밑단 중간_x = point_start_x
            밑단 중간_y = point_start_y + 총장

            일단은 모두 직선으로 해보자

            밑단 오른쪽_x = point_start_x + 밑단 단면 * 0.5
            밑단 오른쪽_y = point_start_y + 총장






        -->
        <path  d="
            M 100 50
            L 117 50
            C 117 51 117.34 53 118 55
            L 100 55
            M 100 93
            C 107.2 92.4 114.4 91.2 123 88
            M 118 55
            C 123 71.5 126.4 84.4 123 88
            "
            stroke="#00e6b5" stroke-width="0.5" fill="none"/>
        <path  d="
            M 100 50
            L 117 50
            C 117 51 117.34 53 118 55
            L 100 55
            M 100 93
            C 107.2 92.4 114.4 91.2 123 88
            M 118 55
            C 123.8 71.5 126.4 84.4 123 88
            "
            stroke="#00e6b5" stroke-width="0.5" fill="none"
            transform="translate(200,0) scale(-1,1)"/>
    </g> 
    <circle cx="114.4" cy="91.2" r="0.5" stroke="red" fill="red"/>
</svg>