<svg id="Layer_1" data-name="Layer 1" xmlns="http://www.w3.org/2000/svg" xmlns:xlink="http://www.w3.org/1999/xlink" viewBox="0 0 1041.7 1127.49"><defs><style>.cls-1,.cls-7{fill:none;}.cls-1{stroke:#001d55;stroke-miterlimit:10;stroke-width:4.17px;}.cls-2{fill:#001d55;}.cls-3{fill:url(#linear-gradient);}.cls-4{font-size:23.54px;fill:#fff;font-family:NanumBarunGothic;}.cls-5{fill:url(#linear-gradient-2);}.cls-6{fill:#00e6b5;}.cls-6,.cls-7{stroke:#04bf92;stroke-linecap:round;stroke-linejoin:round;stroke-width:6.92px;}.cls-8{fill:url(#linear-gradient-3);}</style><linearGradient id="linear-gradient" x1="525.91" y1="139.37" x2="674.87" y2="139.37" gradientUnits="userSpaceOnUse"><stop offset="0" stop-color="#00607c"/><stop offset="1" stop-color="#001d55"/></linearGradient><linearGradient id="linear-gradient-2" x1="524.89" y1="895.06" x2="673.85" y2="895.06" xlink:href="#linear-gradient"/><linearGradient id="linear-gradient-3" x1="547.47" y1="503.4" x2="696.42" y2="503.4" xlink:href="#linear-gradient"/></defs><title>Artboard 85</title><line class="cls-1" x1="414.38" y1="190.17" x2="782.04" y2="190.17"/><path class="cls-2" d="M396.77,190.17c8.29,3.07,18.57,8.32,25,13.88l-5-13.88,5-13.88C415.34,181.85,405.06,187.1,396.77,190.17Z"/><path class="cls-2" d="M799.66,190.17c-8.29,3.07-18.57,8.32-24.95,13.88l5-13.88-5-13.88C781.09,181.85,791.37,187.1,799.66,190.17Z"/><rect class="cls-3" x="525.91" y="115.98" width="148.96" height="46.79" rx="22.66"/><text class="cls-4" transform="translate(555.61 147.61)">허리 단면</text><line class="cls-1" x1="325.02" y1="841.64" x2="890.81" y2="841.64"/><path class="cls-2" d="M307.4,841.64c8.29,3.07,18.58,8.32,25,13.88l-5-13.88,5-13.88C326,833.32,315.69,838.56,307.4,841.64Z"/><path class="cls-2" d="M908.43,841.64c-8.29,3.07-18.58,8.32-24.95,13.88l5-13.88-5-13.88C889.85,833.32,900.14,838.56,908.43,841.64Z"/><rect class="cls-5" x="524.89" y="871.66" width="148.96" height="46.79" rx="22.66"/><text class="cls-4" transform="translate(556.59 903.29)">밑단 단면</text><path class="cls-6" d="M373.64,284.19c-124,298.94-67.1,482.9-71.14,490.85-1.7,3.33,116.45,27.13,123.42,28.27A1166.18,1166.18,0,0,0,598.71,818v0h2.4v0a1166.31,1166.31,0,0,0,172.8-14.7c7-1.14,125.11-24.94,123.42-28.27-4.05-7.95,52.83-191.91-71.15-490.85A231.11,231.11,0,0,1,811,229.43H388.83A231.11,231.11,0,0,1,373.64,284.19Z"/><line class="cls-7" x1="376.72" y1="289.9" x2="825.51" y2="289.9"/><line class="cls-1" x1="519.32" y1="253.96" x2="519.32" y2="788.17"/><path class="cls-2" d="M519.32,236.34c-3.07,8.29-8.32,18.58-13.88,25l13.88-5,13.88,5C527.64,254.92,522.39,244.63,519.32,236.34Z"/><path class="cls-2" d="M519.32,805.79c-3.07-8.29-8.32-18.58-13.88-24.95l13.88,5,13.88-5C527.64,787.21,522.39,797.5,519.32,805.79Z"/><rect class="cls-8" x="547.47" y="480" width="148.96" height="46.79" rx="22.66"/><text class="cls-4" transform="translate(588.16 511.63)">총 길이</text></svg>