<svg id="Layer_1" data-name="Layer 1" xmlns="http://www.w3.org/2000/svg" xmlns:xlink="http://www.w3.org/1999/xlink" viewBox="0 0 1152 1599.32"><defs><style>.cls-1{fill:#00e6b5;}.cls-1,.cls-3{stroke:#04bf92;stroke-linecap:round;stroke-linejoin:round;stroke-width:6px;}.cls-2{fill:#04bf92;}.cls-3,.cls-4{fill:none;}.cls-4{stroke:#001d55;stroke-miterlimit:10;stroke-width:4.17px;}.cls-5{fill:#001d55;}.cls-6{fill:url(#linear-gradient);}.cls-7{font-size:23.54px;fill:#fff;font-family:NanumBarunGothic;}.cls-8{fill:url(#linear-gradient-2);}.cls-9{fill:url(#linear-gradient-3);}.cls-10{fill:url(#linear-gradient-4);}</style><linearGradient id="linear-gradient" x1="486.59" y1="349.18" x2="635.55" y2="349.18" gradientUnits="userSpaceOnUse"><stop offset="0" stop-color="#00607c"/><stop offset="1" stop-color="#001d55"/></linearGradient><linearGradient id="linear-gradient-2" x1="156.83" y1="548.33" x2="305.78" y2="548.33" xlink:href="#linear-gradient"/><linearGradient id="linear-gradient-3" x1="478.53" y1="705.1" x2="627.49" y2="705.1" xlink:href="#linear-gradient"/><linearGradient id="linear-gradient-4" x1="917.32" y1="614.97" x2="1066.27" y2="614.97" xlink:href="#linear-gradient"/></defs><title>Artboard 87</title><path class="cls-1" d="M870.93,625.78C833.36,508,768.55,402.13,760.07,394.74c-15.45-13.46-45.73-25.3-74.49-34.28q1.68-2.28,3.3-4.62H427.93c1.08,1.56,2.17,3.1,3.3,4.62-28.76,9-59,20.82-74.49,34.28-8.48,7.39-73.29,113.29-110.86,231S182,953.34,182,953.34s35.23,3.92,46.31,8.71c11.87,5.15,39.36,29.72,39.36,29.72L390.14,638.46c2.74,60.8-39.52,618.49-9.89,655.77,7.84,9.85,139.71,22.56,172.09,26.93h3.27c32.38-4.37,153.27-17.08,161.1-26.93,29.64-37.28-3-582.4-.25-643.2l116.68,358s27.49-24.57,39.36-29.72c11.08-4.79,46.31-8.71,46.31-8.71S908.5,743.54,870.93,625.78Z"/><path class="cls-1" d="M684.15,391.71h-254a12.59,12.59,0,0,1-12.56-12.56v-11.7A12.59,12.59,0,0,1,430.1,354.9s91.36-17.2,122.57-17.33c33-.12,131.48,17.33,131.48,17.33a12.59,12.59,0,0,1,12.56,12.55v11.7A12.59,12.59,0,0,1,684.15,391.71Z"/><polygon class="cls-2" points="453.98 380.98 548.05 454.43 665.65 378.21 453.98 380.98"/><path class="cls-1" d="M453.92,474.82c1.22.09,2.43.14,3.65.17,26.24.47,52.6-.25,78.87-.34,19.43-4.37,23.92-30,7.14-40.74L426.92,359.44c-16.79-10.72-38.17,4.15-33.95,23.62l16.48,36.1,11.64,25.48c3.73,8.15,6.88,17.58,13.91,23.49.63.52,1.29,1,2,1.49C441.91,473,447.9,474.38,453.92,474.82Z"/><path class="cls-1" d="M654.06,474.82c-1.22.09-2.44.14-3.65.17-26.25.47-52.6-.25-78.87-.34-19.43-4.37-23.93-30-7.14-40.74l116.66-74.47c16.78-10.72,38.16,4.15,34,23.62l-16.49,36.1-11.64,25.48c-3.72,8.15-6.87,17.58-13.91,23.49-.63.52-1.28,1-2,1.49C666.07,473,660.07,474.38,654.06,474.82Z"/><line class="cls-3" x1="554.77" y1="463.25" x2="554.77" y2="1323.57"/><rect class="cls-1" x="192.97" y="894.78" width="62.23" height="135.8" rx="31.12" transform="translate(-750.86 800.04) rotate(-67.43)"/><rect class="cls-1" x="843.62" y="904.86" width="62.23" height="135.8" rx="31.12" transform="translate(312.3 2153.9) rotate(-112.57)"/><path class="cls-1" d="M498.7,909v112.1c0,10-7.17,18.17-15.94,18.17h-96.1c-8.77,0-15.94-8.18-15.94-18.17V909Z"/><path class="cls-1" d="M729.48,909v112.1c0,10-7.17,18.17-15.94,18.17h-96.1c-8.77,0-16-8.18-16-18.17V909Z"/><path class="cls-1" d="M356.74,397.26c3.79,11.19,37.81,221,33.4,246.16"/><path class="cls-1" d="M758.88,397.11c-3.8,11.18-46.83,229.3-42.42,254.5"/><rect class="cls-1" x="507.31" y="517.34" width="95.12" height="18.46" rx="9.23"/><rect class="cls-1" x="507.31" y="641.12" width="95.12" height="18.46" rx="9.23"/><rect class="cls-1" x="507.31" y="764.91" width="95.12" height="18.46" rx="9.23"/><line class="cls-4" x1="412.08" y1="649.38" x2="687.83" y2="649.38"/><path class="cls-5" d="M394.47,649.38c8.29,3.08,18.57,8.32,24.95,13.88l-5-13.88,5-13.88C413,641.06,402.76,646.31,394.47,649.38Z"/><path class="cls-5" d="M705.45,649.38c-8.29,3.08-18.58,8.32-25,13.88l5-13.88-5-13.88C686.87,641.06,697.16,646.31,705.45,649.38Z"/><line class="cls-4" x1="392.94" y1="392.79" x2="729.96" y2="392.79"/><path class="cls-5" d="M375.32,392.79c8.29,3.07,18.57,8.32,24.95,13.88l-5-13.88,5-13.88C393.89,384.46,383.61,389.71,375.32,392.79Z"/><path class="cls-5" d="M747.57,392.79c-8.28,3.07-18.57,8.32-25,13.88l5-13.88-5-13.88C729,384.46,739.29,389.71,747.57,392.79Z"/><line class="cls-4" x1="821.81" y1="409.74" x2="972.83" y2="888.56"/><path class="cls-5" d="M816.51,392.94c-.44,8.83-2.35,20.21-5.73,28l11.72-9,14.75.62C830,408.15,821.93,399.92,816.51,392.94Z"/><path class="cls-5" d="M978.13,905.36c-5.43-7-13.53-15.21-20.75-19.62l14.75.62,11.73-9C980.48,885.14,978.56,896.53,978.13,905.36Z"/><line class="cls-4" x1="338.81" y1="418.92" x2="338.81" y2="1272.26"/><path class="cls-5" d="M338.81,401.31c-3.07,8.29-8.32,18.57-13.88,24.95l13.88-5,13.88,5C347.13,419.88,341.89,409.6,338.81,401.31Z"/><path class="cls-5" d="M338.81,1289.87c-3.07-8.29-8.32-18.57-13.88-24.95l13.88,5,13.88-5C347.13,1271.3,341.89,1281.58,338.81,1289.87Z"/><rect class="cls-6" x="486.59" y="325.79" width="148.96" height="46.79" rx="22.66"/><text class="cls-7" transform="translate(515.29 357.42)">어깨 너비</text><rect class="cls-8" x="156.83" y="524.94" width="148.96" height="46.79" rx="22.66"/><text class="cls-7" transform="translate(196.52 556.57)">총 길이</text><rect class="cls-9" x="478.53" y="681.7" width="148.96" height="46.79" rx="22.66"/><text class="cls-7" transform="translate(511.22 713.33)">가슴 단면</text><rect class="cls-10" x="917.32" y="591.57" width="148.96" height="46.79" rx="22.66"/><text class="cls-7" transform="translate(947.01 623.21)">소매 길이</text></svg>