<svg id="Layer_1" data-name="Layer 1" xmlns="http://www.w3.org/2000/svg" xmlns:xlink="http://www.w3.org/1999/xlink" viewBox="0 0 1084.6 1017.19"><defs><style>.cls-1,.cls-5,.cls-6{fill:none;}.cls-2{fill:#04bf92;}.cls-3{clip-path:url(#clip-path);}.cls-4{fill:#00e6b5;stroke-width:10.71px;}.cls-4,.cls-5{stroke:#04bf92;stroke-linecap:round;stroke-linejoin:round;}.cls-5{stroke-width:6.7px;}.cls-6{stroke:#001d55;stroke-miterlimit:10;stroke-width:4.17px;}.cls-7{fill:#001d55;}.cls-8{fill:url(#linear-gradient);}.cls-9{font-size:23.54px;fill:#fff;font-family:NanumBarunGothic;}.cls-10{fill:url(#linear-gradient-2);}.cls-11{fill:url(#linear-gradient-3);}.cls-12{fill:url(#linear-gradient-4);}</style><clipPath id="clip-path"><path class="cls-1" d="M722.94,583.12,863.14,525S773.08,289.67,735.53,257c-30.76-26.8-115.57-47.66-145.25-54.34-4.21-.94-7.3-1.6-9-2l-1.33.14a.6.6,0,0,0-.09.22c-8,36.68-44.52,67.07-82.17,67.51-38.78.45-77.24-29.6-85.36-67.51a.85.85,0,0,0-.09-.22l-1.33-.14c-1.69.35-4.78,1-9,2-29.68,6.68-114.5,27.54-145.26,54.34-37.55,32.72-127.6,268-127.6,268l140.2,58.13,44.48-108.07C317.58,560,297,815.71,293,826.28c-1.14,3,77.72,24.4,82.38,25.42,103.38,22.72,226,17.72,323.87-25.36-3.94-9.69-24.61-266.21-20.79-351.29Z"/></clipPath><linearGradient id="linear-gradient" x1="423.79" y1="169.95" x2="572.74" y2="169.95" gradientUnits="userSpaceOnUse"><stop offset="0" stop-color="#00607c"/><stop offset="1" stop-color="#001d55"/></linearGradient><linearGradient id="linear-gradient-2" x1="427.98" y1="519.74" x2="576.93" y2="519.74" xlink:href="#linear-gradient"/><linearGradient id="linear-gradient-3" x1="848.38" y1="356.08" x2="997.34" y2="356.08" xlink:href="#linear-gradient"/><linearGradient id="linear-gradient-4" x1="429" y1="364.5" x2="577.95" y2="364.5" xlink:href="#linear-gradient"/></defs><title>Artboard 83</title><path class="cls-2" d="M500.85,208.69H500c-.72,0-1.44,0-2.16,0v-.05l-1.68,0-1.68,0v.05c-.72,0-1.44,0-2.16,0h-.89c-32,0-64.43-6.19-80-8a.58.58,0,0,1,.09.23c7.46,36.49,39.89,64.61,79.9,67.84,1,.09,2,.15,3.05.19v.1c.56,0,1.12,0,1.68,0s1.12,0,1.68,0V269c1,0,2-.1,3.05-.19,40-3.23,72.45-31.35,79.9-67.84a.79.79,0,0,1,.09-.23C565.29,202.5,532.88,208.72,500.85,208.69Z"/><g class="cls-3"><path class="cls-4" d="M722.94,583.12,863.14,525S773.08,289.67,735.53,257c-30.76-26.8-115.57-47.66-145.25-54.34-4.21-.94-7.3-1.6-9-2l-1.33.14a.6.6,0,0,0-.09.22c-8,36.68-44.52,67.07-82.17,67.51-38.78.45-77.24-29.6-85.36-67.51a.85.85,0,0,0-.09-.22l-1.33-.14c-1.69.35-4.78,1-9,2-29.68,6.68-114.5,27.54-145.26,54.34-37.55,32.72-127.6,268-127.6,268l140.2,58.13,44.48-108.07C317.58,560,297,815.71,293,826.28c-1.14,3,77.72,24.4,82.38,25.42,103.38,22.72,226,17.72,323.87-25.36-3.94-9.69-24.61-266.21-20.79-351.29Z"/><path class="cls-5" d="M425.56,253.84C465.75,294,528.86,296,566.67,258.15"/><line class="cls-5" x1="315.55" y1="474.95" x2="251.15" y2="256.1"/><line class="cls-5" x1="676.54" y1="475.19" x2="741.14" y2="256.13"/></g><line class="cls-6" x1="342.06" y1="472.44" x2="648.77" y2="472.44"/><path class="cls-7" d="M324.45,472.44c8.29,3.08,18.57,8.33,24.95,13.89l-5-13.89,5-13.87C343,464.12,332.74,469.37,324.45,472.44Z"/><path class="cls-7" d="M666.38,472.44c-8.29,3.08-18.57,8.33-25,13.89l5-13.89-5-13.87C647.81,464.12,658.09,469.37,666.38,472.44Z"/><line class="cls-6" x1="286.21" y1="232.44" x2="717.7" y2="232.44"/><path class="cls-7" d="M268.6,232.44c8.28,3.08,18.57,8.33,24.95,13.89l-5-13.89,5-13.87C287.17,224.12,276.88,229.37,268.6,232.44Z"/><path class="cls-7" d="M735.32,232.44c-8.29,3.08-18.58,8.33-25,13.89l5-13.89-5-13.87C716.74,224.12,727,229.37,735.32,232.44Z"/><line class="cls-6" x1="786.41" y1="278.96" x2="878.54" y2="495.2"/><path class="cls-7" d="M779.51,262.75c.42,8.83-.38,20.35-3,28.39l10.8-10.06,14.74-.82C794.45,276.58,785.59,269.17,779.51,262.75Z"/><path class="cls-7" d="M885.45,511.4c-6.08-6.42-14.94-13.82-22.55-17.51l14.74-.82L888.44,483C885.82,491.05,885,502.57,885.45,511.4Z"/><line class="cls-6" x1="379.15" y1="264.71" x2="379.15" y2="820.96"/><path class="cls-7" d="M379.15,247.09c-3.07,8.29-8.32,18.58-13.88,25l13.88-5L393,272C387.47,265.67,382.23,255.38,379.15,247.09Z"/><path class="cls-7" d="M379.15,838.58c-3.07-8.29-8.32-18.57-13.88-25l13.88,5,13.88-5C387.47,820,382.23,830.29,379.15,838.58Z"/><rect class="cls-8" x="423.79" y="146.55" width="148.96" height="46.79" rx="22.66"/><text class="cls-9" transform="translate(452.48 178.19)">어깨 너비</text><rect class="cls-10" x="427.98" y="496.34" width="148.96" height="46.79" rx="22.66"/><text class="cls-9" transform="translate(460.67 527.97)">가슴 너비</text><rect class="cls-11" x="848.38" y="332.68" width="148.96" height="46.79" rx="22.66"/><text class="cls-9" transform="translate(879.08 364.31)">소매 길이</text><rect class="cls-12" x="429" y="341.11" width="148.96" height="46.79" rx="22.66"/><text class="cls-9" transform="translate(468.69 372.74)">총 길이</text></svg>