<svg id="Layer_1" data-name="Layer 1" xmlns="http://www.w3.org/2000/svg" xmlns:xlink="http://www.w3.org/1999/xlink" viewBox="0 0 902.81 1593.19"><defs><style>.cls-1{fill:none;stroke:#001d55;stroke-miterlimit:10;stroke-width:4.17px;}.cls-2{fill:#001d55;}.cls-3{fill:url(#linear-gradient);}.cls-4{font-size:23.54px;fill:#fff;font-family:NanumBarunGothic;}.cls-5{fill:url(#linear-gradient-2);}.cls-6{fill:#00e6b5;stroke:#04bf92;stroke-linecap:round;stroke-linejoin:round;stroke-width:5.49px;}.cls-7{fill:url(#linear-gradient-3);}.cls-8{fill:url(#linear-gradient-4);}.cls-9{fill:url(#linear-gradient-5);}</style><linearGradient id="linear-gradient" x1="378.72" y1="129.86" x2="527.68" y2="129.86" gradientUnits="userSpaceOnUse"><stop offset="0" stop-color="#00607c"/><stop offset="1" stop-color="#001d55"/></linearGradient><linearGradient id="linear-gradient-2" x1="392.89" y1="1520.08" x2="541.85" y2="1520.08" xlink:href="#linear-gradient"/><linearGradient id="linear-gradient-3" x1="596.89" y1="393.1" x2="745.85" y2="393.1" xlink:href="#linear-gradient"/><linearGradient id="linear-gradient-4" x1="55.68" y1="751.06" x2="204.63" y2="751.06" xlink:href="#linear-gradient"/><linearGradient id="linear-gradient-5" x1="407.83" y1="768.93" x2="556.78" y2="768.93" xlink:href="#linear-gradient"/></defs><title>Artboard 89</title><line class="cls-1" x1="315.83" y1="179.59" x2="592.34" y2="179.59"/><path class="cls-2" d="M298.21,179.59c8.29,3.08,18.58,8.33,25,13.89l-5-13.89,5-13.88C316.79,171.27,306.5,176.52,298.21,179.59Z"/><path class="cls-2" d="M610,179.59c-8.29,3.08-18.58,8.33-25,13.89l5-13.89-5-13.88C591.38,171.27,601.67,176.52,610,179.59Z"/><rect class="cls-3" x="378.72" y="106.47" width="148.96" height="46.79" rx="22.66"/><text class="cls-4" transform="translate(408.42 138.1)">허리 단면</text><line class="cls-1" x1="322.72" y1="1467.17" x2="610.72" y2="1467.17"/><path class="cls-2" d="M305.11,1467.17c8.29,3.07,18.57,8.32,24.95,13.88l-5-13.88,5-13.88C323.68,1458.85,313.4,1464.1,305.11,1467.17Z"/><path class="cls-2" d="M628.34,1467.17c-8.29,3.07-18.57,8.32-25,13.88l5-13.88-5-13.88C609.77,1458.85,620.05,1464.1,628.34,1467.17Z"/><rect class="cls-5" x="392.89" y="1496.68" width="148.96" height="46.79" rx="22.66"/><text class="cls-4" transform="translate(424.59 1528.31)">밑단 단면</text><path class="cls-6" d="M310.74,215.56v1218.6H614.81L665.87,523.5S581.15,332.77,599.72,219Z"/><path class="cls-6" d="M548.27,490h0a179.25,179.25,0,0,1-160.33,5.59L375.73,490V330.84H548.27Z"/><line class="cls-6" x1="311.9" y1="272.13" x2="597.4" y2="272.13"/><rect class="cls-7" x="596.89" y="369.7" width="148.96" height="46.79" rx="22.66"/><text class="cls-4" transform="translate(653.59 401.33)">밑위</text><line class="cls-1" x1="261.66" y1="229.96" x2="261.66" y2="1412.17"/><path class="cls-2" d="M261.66,212.34c-3.07,8.29-8.32,18.58-13.88,24.95l13.88-5,13.88,5C270,230.92,264.73,220.63,261.66,212.34Z"/><path class="cls-2" d="M261.66,1429.79c-3.07-8.29-8.32-18.58-13.88-25l13.88,5,13.88-5C270,1411.21,264.73,1421.5,261.66,1429.79Z"/><line class="cls-1" x1="571.11" y1="260.68" x2="571.11" y2="520.09"/><path class="cls-2" d="M571.11,243.06c-3.08,8.29-8.33,18.58-13.88,24.95l13.88-5L585,268C579.43,261.64,574.18,251.35,571.11,243.06Z"/><path class="cls-2" d="M571.11,537.7c-3.08-8.29-8.33-18.57-13.88-25l13.88,5,13.88-5C579.43,519.13,574.18,529.41,571.11,537.7Z"/><rect class="cls-8" x="55.68" y="727.66" width="148.96" height="46.79" rx="22.66"/><text class="cls-4" transform="translate(93.37 759.29)">총 길이</text><line class="cls-1" x1="352.6" y1="717.3" x2="613.02" y2="717.3"/><path class="cls-2" d="M335,717.3c8.29,3.07,18.57,8.32,24.95,13.88l-5-13.88,5-13.88C353.55,709,343.27,714.22,335,717.3Z"/><path class="cls-2" d="M630.64,717.3c-8.29,3.07-18.58,8.32-24.95,13.88l5-13.88-5-13.88C612.06,709,622.35,714.22,630.64,717.3Z"/><rect class="cls-9" x="407.83" y="745.53" width="148.96" height="46.79" rx="22.66"/><text class="cls-4" transform="translate(427.52 777.16)">허벅지 단면</text></svg>
