<svg id="Layer_1" data-name="Layer 1" xmlns="http://www.w3.org/2000/svg" xmlns:xlink="http://www.w3.org/1999/xlink" viewBox="0 0 1090.72 1605.45"><defs><style>.cls-1{fill:#00e6b5;}.cls-1,.cls-3{stroke:#04bf92;stroke-linecap:round;stroke-linejoin:round;stroke-width:6px;}.cls-2{fill:#04bf92;}.cls-3,.cls-4{fill:none;}.cls-4{stroke:#001d55;stroke-miterlimit:10;stroke-width:4.17px;}.cls-5{fill:#001d55;}.cls-6{fill:url(#linear-gradient);}.cls-7{font-size:23.54px;fill:#fff;font-family:NanumBarunGothic;}.cls-8{fill:url(#linear-gradient-2);}.cls-9{fill:url(#linear-gradient-3);}.cls-10{fill:url(#linear-gradient-4);}</style><linearGradient id="linear-gradient" x1="440.24" y1="472.84" x2="589.19" y2="472.84" gradientUnits="userSpaceOnUse"><stop offset="0" stop-color="#00607c"/><stop offset="1" stop-color="#001d55"/></linearGradient><linearGradient id="linear-gradient-2" x1="124.94" y1="775.06" x2="273.9" y2="775.06" xlink:href="#linear-gradient"/><linearGradient id="linear-gradient-3" x1="438.32" y1="744.16" x2="587.28" y2="744.16" xlink:href="#linear-gradient"/><linearGradient id="linear-gradient-4" x1="858.11" y1="721.18" x2="1007.07" y2="721.18" xlink:href="#linear-gradient"/></defs><title>Artboard 88</title><polygon class="cls-1" points="171.03 975.82 173.18 1002.43 231.25 1032.37 252.45 1012.34 221.32 966.44 171.03 975.82"/><polygon class="cls-1" points="856.02 975.82 853.87 1002.43 795.8 1032.37 774.6 1012.34 805.73 966.44 856.02 975.82"/><path class="cls-1" d="M510.87,1443.77c30.77-4.16,145.65-16.23,153.09-25.6,28.17-35.42-2.83-537-.23-594.81l110.87,189S800.73,989,812,984.1c10.53-4.56,44-8.28,44-8.28s-9.8-123.17-45.5-235.07-97.3-212.54-105.35-219.56c-14.69-12.79-43.46-24.05-70.79-32.58,21.59-29,34.57-66.35,34.57-107C669,289,601.8,213.94,519,213.94H508.08c-82.83,0-150,75-150,167.62,0,40.7,13,78,34.57,107.05-27.33,8.53-56.1,19.79-70.79,32.58-8.05,7-69.65,107.66-105.35,219.56S171,975.82,171,975.82s33.48,3.72,44,8.28c11.28,4.89,37.41,28.24,37.41,28.24L353.63,812.59c2.59,57.77-37.56,570.16-9.4,605.58,7.45,9.37,132.76,21.44,163.53,25.6"/><path class="cls-1" d="M353,816.18c-.55-26.43,21.25-235-32.63-292.44"/><path class="cls-2" d="M638.76,363c0,69.28-55,148.43-125.89,148.43S382.19,432.32,382.19,363s57.43-125.46,128.28-125.46S638.76,293.75,638.76,363Z"/><path class="cls-3" d="M451.8,507.28s23.95,23.34,62.26,21.55,65.26-26.34,65.26-26.34"/><path class="cls-1" d="M275.2,607s69.61,47.69,81.72,71.54"/><path class="cls-1" d="M235.45,693.05s104.07,71.57,118.18,91.1"/><path class="cls-1" d="M205.72,783.37s98.84,71.47,116.48,87.89"/><path class="cls-1" d="M186,877.24s79.94,55.43,97.58,71.84"/><line class="cls-3" x1="388.35" y1="582.71" x2="491.32" y2="582.71"/><line class="cls-3" x1="388.35" y1="668.91" x2="491.32" y2="668.91"/><line class="cls-3" x1="388.35" y1="755.12" x2="491.32" y2="755.12"/><line class="cls-3" x1="388.35" y1="841.32" x2="491.32" y2="841.32"/><line class="cls-3" x1="388.35" y1="927.53" x2="491.32" y2="927.53"/><line class="cls-3" x1="388.35" y1="1008.35" x2="491.32" y2="1008.35"/><line class="cls-3" x1="388.35" y1="1089.16" x2="491.32" y2="1089.16"/><line class="cls-3" x1="388.35" y1="1169.98" x2="491.32" y2="1169.98"/><line class="cls-3" x1="388.35" y1="1250.8" x2="491.32" y2="1250.8"/><line class="cls-3" x1="388.35" y1="1331.62" x2="491.32" y2="1331.62"/><line class="cls-3" x1="538.61" y1="1008.35" x2="641.58" y2="1008.35"/><line class="cls-3" x1="538.61" y1="1089.16" x2="641.58" y2="1089.16"/><line class="cls-3" x1="538.61" y1="1169.98" x2="641.58" y2="1169.98"/><line class="cls-3" x1="538.61" y1="1250.8" x2="641.58" y2="1250.8"/><line class="cls-3" x1="538.61" y1="1331.62" x2="641.58" y2="1331.62"/><path class="cls-1" d="M664.33,826.16c.55-26.43-11.56-244.95,42.32-302.42"/><line class="cls-3" x1="638.7" y1="582.71" x2="535.74" y2="582.71"/><line class="cls-3" x1="638.7" y1="668.91" x2="535.74" y2="668.91"/><line class="cls-3" x1="638.7" y1="755.12" x2="535.74" y2="755.12"/><line class="cls-3" x1="638.7" y1="841.32" x2="535.74" y2="841.32"/><line class="cls-3" x1="638.7" y1="927.53" x2="535.74" y2="927.53"/><line class="cls-3" x1="519.78" y1="475.07" x2="509.18" y2="1439.85"/><path class="cls-1" d="M752.73,605.65s-74.5,53.38-86.61,77.23"/><path class="cls-1" d="M790.48,693.05S679,769.51,664.92,789"/><path class="cls-1" d="M820.21,783.37S713.69,860,696.05,876.44"/><path class="cls-1" d="M839.93,877.24S758,934.46,740.35,950.88"/><line class="cls-4" x1="370.24" y1="696.1" x2="645.99" y2="696.1"/><path class="cls-5" d="M352.62,696.1c8.29,3.08,18.58,8.33,24.95,13.89l-5-13.89,5-13.88C371.2,687.78,360.91,693,352.62,696.1Z"/><path class="cls-5" d="M663.6,696.1c-8.29,3.08-18.57,8.33-25,13.89l5-13.89-5-13.88C645,687.78,655.31,693,663.6,696.1Z"/><line class="cls-4" x1="357.7" y1="520.44" x2="678.89" y2="520.44"/><path class="cls-5" d="M340.09,520.44c8.28,3.08,18.57,8.33,24.94,13.89l-5-13.89,5-13.87C358.66,512.12,348.37,517.37,340.09,520.44Z"/><path class="cls-5" d="M696.51,520.44c-8.29,3.08-18.57,8.33-25,13.89l5-13.89-5-13.87C677.94,512.12,688.22,517.37,696.51,520.44Z"/><line class="cls-4" x1="755.08" y1="539.72" x2="901.68" y2="946.24"/><path class="cls-5" d="M749.11,523.15c-.08,8.84-1.53,20.3-4.6,28.18l11.36-9.43h14.76C763.23,537.8,754.81,529.9,749.11,523.15Z"/><path class="cls-5" d="M907.66,962.81c-5.71-6.76-14.13-14.65-21.52-18.76H900.9l11.35-9.43C909.19,942.51,907.74,954,907.66,962.81Z"/><line class="cls-4" x1="311.65" y1="536.94" x2="311.65" y2="1405.53"/><path class="cls-5" d="M311.65,519.32c-3.08,8.29-8.32,18.57-13.88,24.95l13.88-5,13.88,5C320,537.89,314.72,527.61,311.65,519.32Z"/><path class="cls-5" d="M311.65,1423.15c-3.08-8.29-8.32-18.58-13.88-25l13.88,5,13.88-5C320,1404.57,314.72,1414.86,311.65,1423.15Z"/><rect class="cls-6" x="440.24" y="449.45" width="148.96" height="46.79" rx="22.66"/><text class="cls-7" transform="translate(468.93 481.08)">어깨 너비</text><rect class="cls-8" x="124.94" y="751.66" width="148.96" height="46.79" rx="22.66"/><text class="cls-7" transform="translate(164.63 783.29)">총 길이</text><rect class="cls-9" x="438.32" y="720.77" width="148.96" height="46.79" rx="22.66"/><text class="cls-7" transform="translate(471.02 752.4)">가슴 단면</text><rect class="cls-10" x="858.11" y="697.79" width="148.96" height="46.79" rx="22.66"/><text class="cls-7" transform="translate(887.81 729.42)">소매 길이</text></svg>