<svg id="Layer_1" data-name="Layer 1" xmlns="http://www.w3.org/2000/svg" xmlns:xlink="http://www.w3.org/1999/xlink" viewBox="0 0 1109.11 1084.6"><defs><style>.cls-1,.cls-2{fill:#00e6b5;}.cls-1,.cls-2,.cls-3{stroke:#04bf92;stroke-linecap:round;stroke-linejoin:round;}.cls-1,.cls-3{stroke-width:4.45px;}.cls-2{stroke-width:3.59px;}.cls-3,.cls-4{fill:none;}.cls-4{stroke:#001d55;stroke-miterlimit:10;stroke-width:4.17px;}.cls-5{fill:#001d55;}.cls-6{fill:url(#linear-gradient);}.cls-7{font-size:23.54px;fill:#fff;font-family:NanumBarunGothic;}.cls-8{fill:url(#linear-gradient-2);}.cls-9{fill:url(#linear-gradient-3);}.cls-10{fill:url(#linear-gradient-4);}</style><linearGradient id="linear-gradient" x1="516.72" y1="158.46" x2="665.68" y2="158.46" gradientUnits="userSpaceOnUse"><stop offset="0" stop-color="#00607c"/><stop offset="1" stop-color="#001d55"/></linearGradient><linearGradient id="linear-gradient-2" x1="703.96" y1="850.89" x2="852.91" y2="850.89" xlink:href="#linear-gradient"/><linearGradient id="linear-gradient-3" x1="569.06" y1="384.67" x2="718.02" y2="384.67" xlink:href="#linear-gradient"/><linearGradient id="linear-gradient-4" x1="30.7" y1="468.67" x2="179.66" y2="468.67" xlink:href="#linear-gradient"/></defs><title>Artboard 84</title><path class="cls-1" d="M563.5,295.05c72.85-2.15,230.13-2.33,285.8-24.93-11.55-20.38-19.85-32.23-19.85-32.23L598.77,240H587.44l-230.68-2.06s-9,12.81-21.29,34.78C383.56,284.78,498.78,297,563.5,295.05Z"/><path class="cls-1" d="M593.94,571.31c3,14.27,10.06,120.83,12,149.05,1,14.91,1.67,29.83,2.77,44.73,6.11.35,12.3.07,18.42.07H931.4s0-166.83-13.38-293.5C909.07,387,872.56,311.17,849.3,270.12c-55.67,22.6-213,22.78-285.8,24.93-64.72,1.9-179.94-10.27-228-22.38-23.3,41.6-58.51,116.1-67.27,199-13.39,126.67-13.39,293.5-13.39,293.5l325.33-.42Z"/><path class="cls-2" d="M560.92,296.6c0,18.28-1.24,135,2.44,144.6,3.46,9,14.28,15,31.69,13.29"/><circle class="cls-1" cx="593.6" cy="266.73" r="15.45"/><line class="cls-3" x1="594.01" y1="296.37" x2="594.01" y2="572.82"/><line class="cls-4" x1="382.21" y1="211.25" x2="812.68" y2="211.25"/><path class="cls-5" d="M364.6,211.25c8.28,3.08,18.57,8.33,24.95,13.89l-5-13.89,5-13.88C383.17,202.93,372.88,208.18,364.6,211.25Z"/><path class="cls-5" d="M830.3,211.25c-8.29,3.08-18.58,8.33-24.95,13.89l5-13.89-5-13.88C811.72,202.93,822,208.18,830.3,211.25Z"/><rect class="cls-6" x="516.72" y="135.06" width="148.96" height="46.79" rx="22.66"/><text class="cls-7" transform="translate(546.42 166.7)">허리 단면</text><line class="cls-4" x1="633.91" y1="798.23" x2="912.77" y2="798.23"/><path class="cls-5" d="M616.3,798.23c8.29,3.08,18.57,8.33,25,13.88l-5-13.88,5-13.88C634.87,789.91,624.59,795.16,616.3,798.23Z"/><path class="cls-5" d="M930.38,798.23c-8.29,3.08-18.57,8.33-25,13.88l5-13.88-5-13.88C911.81,789.91,922.09,795.16,930.38,798.23Z"/><rect class="cls-8" x="703.96" y="827.49" width="148.96" height="46.79" rx="22.66"/><text class="cls-7" transform="translate(723.65 859.12)">허벅지 단면</text><rect class="cls-9" x="569.06" y="361.28" width="148.96" height="46.79" rx="22.66"/><text class="cls-7" transform="translate(625.76 392.91)">밑위</text><line class="cls-4" x1="216" y1="215.66" x2="216" y2="749.87"/><path class="cls-5" d="M216,198c-3.07,8.29-8.32,18.58-13.88,25L216,218l13.88,5C224.32,216.62,219.08,206.33,216,198Z"/><path class="cls-5" d="M216,767.49c-3.07-8.29-8.32-18.57-13.88-25l13.88,5,13.88-5C224.32,748.92,219.08,759.2,216,767.49Z"/><line class="cls-4" x1="539.24" y1="283.83" x2="539.24" y2="497.87"/><path class="cls-5" d="M539.24,266.21c-3.08,8.29-8.33,18.58-13.89,25l13.89-5,13.88,5C547.56,284.79,542.31,274.5,539.24,266.21Z"/><path class="cls-5" d="M539.24,515.49c-3.08-8.29-8.33-18.57-13.89-24.95l13.89,5,13.88-5C547.56,496.92,542.31,507.2,539.24,515.49Z"/><rect class="cls-10" x="30.7" y="445.28" width="148.96" height="46.79" rx="22.66"/><text class="cls-7" transform="translate(68.39 476.91)">총 길이</text></svg>
