<svg id="Layer_1" data-name="Layer 1" xmlns="http://www.w3.org/2000/svg" xmlns:xlink="http://www.w3.org/1999/xlink" 
    width="800" height="800" 
    viewBox="0 0 200 200">
    <!--style 작동이 안하네 일단 넘어가는데 따로 공부하도록-->
    <path d="
        M 100 50
        L 120 50
        C 112 53 106 53 100 53
        M 120 50
        L 121 55
        C 112 58 106 58 100 58
        M 100 58
        L 100 77
        L 100.861 87
        L 123 87
        M 121 55
        C 125 68 125 70 125 72
        C 125 74 125 76 123 87
        "
        stroke="#00e6b5" stroke-width="0.5" fill="none"/>
    <path d="
        M 100 50
        L 120 50
        C 112 53 106 53 100 53
        M 120 50
        L 121 55
        C 112 58 106 58 100 58
        M 100 58
        L 100 77
        L 100.861 87
        L 123 87
        M 121 55
        C 125 68 125 70 125 72
        C 125 74 125 76 123 87
        "
        stroke="#00e6b5" stroke-width="0.5" fill="none"
        transform="translate(200, 0) scale(-1,1)"/>
</svg>