<svg id="Layer_1" data-name="Layer 1" xmlns="http://www.w3.org/2000/svg" xmlns:xlink="http://www.w3.org/1999/xlink" 
    width="800" height="800" 
    viewBox="0 0 200 200">
    <!--style 작동이 안하네 일단 넘어가는데 따로 공부하도록-->
    <g>
        <!--어깨 가슴 팔 총장
            50 54 22 72
            고정값
            목 아래 7
            목 옆 8

            어깨 y점 55 고정
            어깨 x점 길이에 따라 변함 
            어깨 제어점1 y 51 고정
            어깨 제어점1 x 어깨 * 0.48
            어깨 제어점2 y 52 고정
            어깨 제어점2 x 어깨 * 0.88
            
            어깨 -> 소매 각도 40
            cos(40) 0.436
            sin(40) 0.766
            
            소매 20
            소매 각도 67
            cos(67) = 0.39
            sin(67) = 0.92

            겨드랑이 y점 : 81

        -->
        <path d="
        M 100 50
        M 100 57
        C 102 57 108 52 108 50
        C 112 51 122 52 125 55
        L 141.852 69.146
        L 134.052 87.564
        M 100 57
        M 100 122
        L 127 122
        L 127 81
        L 134.052 87.564
        "
        stroke="#00e6b5" stroke-width="0.5" fill="none"/>
        <!--Q 133 62 134.636 74.78-->
    </g>    
    
    <path d="
        M 100 50
        M 100 57
        C 102 57 108 52 108 50
        C 112 51 122 52 125 55
        L 141.852 69.146
        L 134.052 87.564
        M 100 57
        M 100 122
        L 127 122
        L 127 81
        L 134.052 87.564
        "
        stroke="#00e6b5" stroke-width="0.5" fill="none"
        transform="translate(200,0) scale(-1,1)"/>
    
    <circle cx="100" cy="57" r="0.5" stroke="red" fill="red"/>
</svg>